<svg width="34" height="28" viewBox="0 0 34 28" fill="none" xmlns="http://www.w3.org/2000/svg">
<mask id="path-1-inside-1_1630_288" fill="white">
<path d="M31.3891 0L10.5375 22.3923L2.61095 13.8799L0 16.6838L10.5375 28L34 2.80387L31.3891 0Z"/>
</mask>
<path d="M31.3891 0L10.5375 22.3923L2.61095 13.8799L0 16.6838L10.5375 28L34 2.80387L31.3891 0Z" fill="black"/>
<path d="M31.3891 0L34.3164 -2.72592L31.3891 -5.86957L28.4617 -2.72592L31.3891 0ZM10.5375 22.3923L7.6102 25.1182L10.5375 28.2618L13.4649 25.1182L10.5375 22.3923ZM2.61095 13.8799L5.53829 11.154L2.61095 8.01037L-0.316399 11.154L2.61095 13.8799ZM0 16.6838L-2.92734 13.9579L-5.4657 16.6838L-2.92734 19.4097L0 16.6838ZM10.5375 28L7.6102 30.7259L10.5375 33.8696L13.4649 30.7259L10.5375 28ZM34 2.80387L36.9273 5.5298L39.4657 2.80387L36.9273 0.0779504L34 2.80387ZM28.4617 -2.72592L7.6102 19.6663L13.4649 25.1182L34.3164 2.72592L28.4617 -2.72592ZM13.4649 19.6663L5.53829 11.154L-0.316399 16.6059L7.6102 25.1182L13.4649 19.6663ZM-0.316399 11.154L-2.92734 13.9579L2.92734 19.4097L5.53829 16.6059L-0.316399 11.154ZM-2.92734 19.4097L7.6102 30.7259L13.4649 25.2741L2.92734 13.9579L-2.92734 19.4097ZM13.4649 30.7259L36.9273 5.5298L31.0727 0.0779504L7.6102 25.2741L13.4649 30.7259ZM36.9273 0.0779504L34.3164 -2.72592L28.4617 2.72592L31.0727 5.5298L36.9273 0.0779504Z" fill="black" mask="url(#path-1-inside-1_1630_288)"/>
</svg>
