<svg display="none" xmlns="http://www.w3.org/2000/svg">

    <!-- Логотип -->
    <symbol id="logo" viewBox="0 0 227 88">
        <path d="M79.2736 71.7574L0 71.7379L42.7954 0L122.059 0.0488212L79.2736 71.7574Z" fill="white"/>
        <path d="M120.432 0.663975L131.777 30.5816H133.608L122.059 0.0488281L120.432 0.663975Z" fill="white"/>
        <path d="M126.034 53.4225V49.5656H124.493V40.3579H117.43V41.8518C117.43 43.834 117.295 45.4158 117.033 46.568C116.771 47.7202 116.364 48.7161 115.802 49.5656H114.785V53.4225H116.374V51.1181H124.455V53.4225H126.034ZM122.817 49.5656H117.634C118.167 48.6868 118.535 47.642 118.748 46.4313C118.961 45.2205 119.068 43.707 119.068 41.9104H122.817V49.5656Z"
              fill="white" stroke="white" stroke-width="0.25" stroke-miterlimit="10"/>
        <path d="M133.201 51.3102C134.771 51.3102 136.069 50.7732 137.106 49.7088C138.142 48.6348 138.665 47.3166 138.665 45.7348C138.665 44.153 138.142 42.8348 137.106 41.7705C136.069 40.6965 134.771 40.1594 133.201 40.1594C131.631 40.1594 130.333 40.6965 129.296 41.7705C128.279 42.8348 127.756 44.153 127.756 45.7348C127.756 47.3166 128.279 48.6348 129.296 49.7088C130.333 50.7732 131.631 51.3102 133.201 51.3102ZM130.546 42.8934C131.263 42.122 132.145 41.7412 133.201 41.7412C134.257 41.7412 135.139 42.122 135.856 42.8934C136.573 43.6453 136.941 44.6022 136.941 45.7348C136.941 46.8675 136.573 47.8244 135.856 48.5957C135.139 49.3476 134.257 49.7284 133.201 49.7284C132.145 49.7284 131.263 49.3476 130.546 48.5957C129.829 47.8244 129.48 46.8772 129.48 45.7348C129.48 44.5924 129.829 43.6453 130.546 42.8934Z"
              fill="white" stroke="white" stroke-width="0.25" stroke-miterlimit="10"/>
        <path d="M149.838 51.1154H151.514V40.365H149.838L146.408 45.1983L142.949 40.365H141.234V51.1154H142.911V42.9428L145.885 46.9949H146.864L149.838 42.9428V51.1154Z"
              fill="white" stroke="white" stroke-width="0.25" stroke-miterlimit="10"/>
        <path d="M117.205 64.5407C117.157 66.5033 117.069 67.7043 116.779 68.6905C116.517 69.6767 116.033 70.1063 115.287 70.1063C115.054 70.1063 114.87 70.0868 114.725 70.0478V71.5807C114.88 71.6296 115.093 71.6589 115.383 71.6589C116.711 71.6589 117.583 71.1218 118.087 69.8915C118.59 68.6515 118.784 67.1283 118.833 64.7165L118.881 62.4121H122.689V71.61H124.365V60.8499H117.263L117.205 64.5407Z"
              fill="white" stroke="white" stroke-width="0.25" stroke-miterlimit="10"/>
        <path d="M132.601 60.7915H130.983L126.312 71.6103H128.095L129.239 68.9349H134.296L135.459 71.6103H137.261L132.601 60.7915ZM129.83 67.4409L131.777 62.9201L133.724 67.4409H129.83Z"
              fill="white" stroke="white" stroke-width="0.25" stroke-miterlimit="10"/>
        <path d="M144.575 65.8005C144.982 65.6638 145.37 65.4002 145.718 65.0194C146.067 64.6386 146.232 64.1601 146.232 63.5743C146.232 62.6955 145.883 61.9925 145.166 61.4555C144.449 60.9184 143.519 60.6548 142.356 60.6548C141.136 60.6548 140.012 60.9282 138.975 61.4652V63.0177C140.031 62.4905 141.126 62.2366 142.269 62.2366C143.674 62.2366 144.575 62.7443 144.575 63.6622C144.575 64.5702 143.829 65.1073 142.531 65.1073H141.01V66.6598H142.337C143.907 66.6598 144.943 67.3335 144.943 68.3295C144.943 69.4817 143.829 70.2237 142.017 70.2237C140.845 70.2237 139.459 69.8234 138.529 69.2278V70.8877C139.518 71.5029 140.758 71.8055 142.269 71.8055C143.626 71.8055 144.691 71.5029 145.486 70.8682C146.28 70.2335 146.678 69.4426 146.678 68.4759C146.678 67.7827 146.464 67.1968 146.057 66.7574C145.621 66.2888 145.137 65.9665 144.575 65.8005Z"
              fill="white" stroke="white" stroke-width="0.25" stroke-miterlimit="10"/>
        <path d="M148.51 66.2302C148.51 67.812 149.033 69.1302 150.05 70.214C151.087 71.2783 152.385 71.8153 153.955 71.8153C155.524 71.8153 156.823 71.2783 157.859 70.214C158.896 69.1399 159.419 67.8217 159.419 66.2302C159.419 64.6386 158.896 63.3302 157.859 62.2659C156.823 61.1918 155.524 60.6548 153.955 60.6548C152.385 60.6548 151.087 61.1918 150.05 62.2659C149.033 63.3204 148.51 64.6484 148.51 66.2302ZM151.3 63.3888C152.017 62.6174 152.899 62.2366 153.955 62.2366C155.011 62.2366 155.893 62.6174 156.61 63.3888C157.327 64.1406 157.695 65.0975 157.695 66.2302C157.695 67.3628 157.327 68.3197 156.61 69.0911C155.893 69.8429 155.011 70.2237 153.955 70.2237C152.899 70.2237 152.017 69.8429 151.3 69.0911C150.583 68.3197 150.234 67.3726 150.234 66.2302C150.234 65.0878 150.583 64.1406 151.3 63.3888Z"
              fill="white" stroke="white" stroke-width="0.25" stroke-miterlimit="10"/>
        <path d="M170.832 68.5739C170.832 66.992 169.854 65.9473 168.565 65.7032C169.369 65.4005 169.98 64.5998 169.98 63.4867C169.98 61.8268 168.749 60.8406 166.84 60.8406H161.996V71.591H167.238C168.352 71.591 169.214 71.3176 169.863 70.761C170.513 70.224 170.832 69.4819 170.832 68.5739ZM163.663 62.4029H166.54C167.654 62.4029 168.313 62.8813 168.313 63.7894C168.313 64.6974 167.654 65.1857 166.54 65.1857H163.663V62.4029ZM166.928 70.0482H163.663V66.6698H166.928C168.255 66.6698 169.011 67.2654 169.011 68.3297C169.02 69.4233 168.226 70.0482 166.928 70.0482Z"
              fill="white" stroke="white" stroke-width="0.25" stroke-miterlimit="10"/>
        <path d="M175.532 69.1009C174.786 68.349 174.399 67.3824 174.399 66.2302C174.399 65.078 174.767 64.1211 175.513 63.3692C176.259 62.6174 177.208 62.2366 178.322 62.2366C179.379 62.2366 180.338 62.51 181.2 63.0861V61.3773C180.357 60.8989 179.398 60.6548 178.303 60.6548C176.685 60.6548 175.348 61.1821 174.282 62.2366C173.216 63.2814 172.684 64.6191 172.684 66.2302C172.684 67.8413 173.216 69.179 174.282 70.2433C175.367 71.288 176.704 71.8153 178.303 71.8153C179.505 71.8153 180.541 71.5224 181.433 70.9561V69.2473C180.609 69.9113 179.592 70.2335 178.381 70.2335C177.237 70.2237 176.288 69.8527 175.532 69.1009Z"
              fill="white" stroke="white" stroke-width="0.25" stroke-miterlimit="10"/>
        <path d="M185.473 66.4448L190.501 71.6003H192.788L187.062 65.7613L191.994 60.8499H189.843L185.473 65.2438V60.8499H183.797V71.6003H185.473V66.4448Z"
              fill="white" stroke="white" stroke-width="0.25" stroke-miterlimit="10"/>
        <path d="M198.599 60.6453C197.03 60.6453 195.732 61.1823 194.695 62.2564C193.677 63.3207 193.154 64.6388 193.154 66.2207C193.154 67.8025 193.677 69.1206 194.695 70.2045C195.732 71.2688 197.03 71.8058 198.599 71.8058C200.169 71.8058 201.467 71.2688 202.504 70.2045C203.541 69.1304 204.064 67.8122 204.064 66.2207C204.064 64.6291 203.541 63.3207 202.504 62.2564C201.467 61.1921 200.169 60.6453 198.599 60.6453ZM201.254 69.0816C200.537 69.8334 199.655 70.2142 198.599 70.2142C197.543 70.2142 196.662 69.8334 195.945 69.0816C195.228 68.3102 194.879 67.3631 194.879 66.2207C194.879 65.0782 195.228 64.1311 195.945 63.3793C196.662 62.6079 197.543 62.2271 198.599 62.2271C199.655 62.2271 200.537 62.6079 201.254 63.3793C201.971 64.1311 202.339 65.088 202.339 66.2207C202.339 67.3533 201.971 68.32 201.254 69.0816Z"
              fill="white" stroke="white" stroke-width="0.25" stroke-miterlimit="10"/>
        <path d="M208.309 62.4024H214.103V60.8499H206.633V71.6003H208.309V62.4024Z" fill="white" stroke="white"
              stroke-width="0.25" stroke-miterlimit="10"/>
        <path d="M226.001 66.2302C226.001 64.6484 225.478 63.3302 224.441 62.2659C223.405 61.1918 222.106 60.6548 220.537 60.6548C218.967 60.6548 217.669 61.1918 216.632 62.2659C215.615 63.3302 215.092 64.6484 215.092 66.2302C215.092 67.812 215.615 69.1302 216.632 70.214C217.669 71.2783 218.967 71.8153 220.537 71.8153C222.106 71.8153 223.405 71.2783 224.441 70.214C225.478 69.1302 226.001 67.812 226.001 66.2302ZM223.192 69.0813C222.475 69.8332 221.593 70.214 220.537 70.214C219.481 70.214 218.599 69.8332 217.882 69.0813C217.165 68.31 216.816 67.3628 216.816 66.2204C216.816 65.078 217.165 64.1309 217.882 63.379C218.599 62.6076 219.481 62.2268 220.537 62.2268C221.593 62.2268 222.475 62.6076 223.192 63.379C223.909 64.1309 224.277 65.0878 224.277 66.2204C224.277 67.3531 223.909 68.3197 223.192 69.0813Z"
              fill="white" stroke="white" stroke-width="0.25" stroke-miterlimit="10"/>
        <path d="M116.401 86.0714C116.043 85.7102 115.859 85.2415 115.859 84.6849C115.859 84.1284 116.033 83.6694 116.391 83.3082C116.75 82.9469 117.205 82.7614 117.738 82.7614C118.242 82.7614 118.707 82.8981 119.124 83.1715V82.3513C118.717 82.1169 118.261 81.9998 117.729 81.9998C116.953 81.9998 116.304 82.2536 115.791 82.7614C115.277 83.2691 115.016 83.9038 115.016 84.6849C115.016 85.4661 115.277 86.1105 115.791 86.6182C116.314 87.126 116.963 87.3701 117.729 87.3701C118.31 87.3701 118.804 87.2334 119.23 86.96V86.1398C118.833 86.462 118.339 86.6085 117.758 86.6085C117.215 86.6085 116.76 86.4327 116.401 86.0714Z"
              fill="white" stroke="white" stroke-width="0.25" stroke-miterlimit="10"/>
        <path d="M119.986 82.8395H121.682V87.2725H122.486V82.8395H124.191V82.0974H119.986V82.8395Z" fill="white"
              stroke="white" stroke-width="0.25" stroke-miterlimit="10"/>
        <path d="M127.428 82.0974H125.219V87.2725H126.023V85.1341H127.428C127.961 85.1341 128.377 84.9974 128.687 84.7045C128.997 84.4115 129.152 84.0503 129.152 83.5913C129.152 83.152 128.997 82.7809 128.687 82.5075C128.387 82.2341 127.97 82.0974 127.428 82.0974ZM127.37 84.392H126.033V82.8493H127.37C127.98 82.8493 128.338 83.1227 128.338 83.6206C128.338 84.1186 127.97 84.392 127.37 84.392Z"
              fill="white" stroke="white" stroke-width="0.25" stroke-miterlimit="10"/>
        <path d="M132.669 81.9998C131.913 81.9998 131.283 82.2634 130.789 82.7809C130.295 83.2886 130.043 83.9233 130.043 84.6947C130.043 85.4563 130.295 86.091 130.789 86.6085C131.283 87.1162 131.913 87.3798 132.669 87.3798C133.424 87.3798 134.044 87.1162 134.548 86.6085C135.042 86.091 135.294 85.4563 135.294 84.6947C135.294 83.9331 135.042 83.2984 134.548 82.7809C134.044 82.2634 133.424 81.9998 132.669 81.9998ZM133.948 86.0617C133.599 86.423 133.172 86.6085 132.669 86.6085C132.165 86.6085 131.739 86.423 131.39 86.0617C131.041 85.6906 130.876 85.2317 130.876 84.6849C130.876 84.1381 131.051 83.6792 131.39 83.3179C131.739 82.9469 132.165 82.7614 132.669 82.7614C133.172 82.7614 133.599 82.9469 133.948 83.3179C134.296 83.6792 134.471 84.1381 134.471 84.6849C134.471 85.2317 134.287 85.6906 133.948 86.0617Z"
              fill="white" stroke="white" stroke-width="0.25" stroke-miterlimit="10"/>
        <path d="M137.347 85.8957V82.0974H136.543V87.2725H137.231L140.07 83.4546V87.2725H140.884V82.0974H140.176L137.347 85.8957Z"
              fill="white" stroke="white" stroke-width="0.25" stroke-miterlimit="10"/>
        <path d="M141.912 82.8395H143.608V87.2725H144.412V82.8395H146.117V82.0974H141.912V82.8395Z" fill="white"
              stroke="white" stroke-width="0.25" stroke-miterlimit="10"/>
        <path d="M147.956 84.89H150.272V84.1381H147.956V82.8395H150.805V82.0974H147.143V87.2725H150.902V86.5304H147.956V84.89Z"
              fill="white" stroke="white" stroke-width="0.25" stroke-miterlimit="10"/>
        <path d="M152.637 83.874C152.618 84.8212 152.569 85.3972 152.434 85.8757C152.308 86.3444 152.075 86.5592 151.717 86.5592C151.61 86.5592 151.523 86.5494 151.445 86.5299V87.272C151.523 87.2915 151.62 87.311 151.765 87.311C152.405 87.311 152.821 87.0474 153.063 86.4616C153.306 85.8659 153.402 85.1336 153.422 83.9717L153.441 82.8585H155.272V87.2915H156.077V82.1165H152.656L152.637 83.874Z"
              fill="white" stroke="white" stroke-width="0.25" stroke-miterlimit="10"/>
        <path d="M159.641 83.8843H158.314V82.0974H157.51V87.2725H159.651C160.242 87.2725 160.707 87.1162 161.056 86.8038C161.405 86.4816 161.579 86.0812 161.579 85.5833C161.579 85.0755 161.414 84.6752 161.066 84.353C160.707 84.0405 160.232 83.8843 159.641 83.8843ZM159.593 86.5304H158.304V84.6361H159.593C160.31 84.6361 160.736 84.9876 160.736 85.593C160.746 86.1789 160.329 86.5304 159.593 86.5304Z"
              fill="white" stroke="white" stroke-width="0.25" stroke-miterlimit="10"/>
        <path d="M166.134 84.1381H163.46V82.0974H162.646V87.2725H163.46V84.89H166.134V87.2725H166.948V82.0974H166.134V84.1381Z"
              fill="white" stroke="white" stroke-width="0.25" stroke-miterlimit="10"/>
        <path d="M170.144 82.0676L167.896 87.272H168.759L169.311 85.9831H171.753L172.315 87.272H173.177L170.929 82.0676H170.144ZM169.582 85.2703L170.522 83.0929L171.462 85.2703H169.582Z"
              fill="white" stroke="white" stroke-width="0.25" stroke-miterlimit="10"/>
        <path d="M174.117 83.5718C174.117 84.2846 174.534 84.8314 175.26 84.9974L173.623 87.2725H174.602L176.152 85.0853H177.353V87.2725H178.157V82.0974H175.813C174.766 82.0974 174.117 82.6833 174.117 83.5718ZM177.353 82.8395V84.3627H175.852C175.27 84.3627 174.921 84.0796 174.921 83.6011C174.921 83.1227 175.27 82.8395 175.852 82.8395H177.353Z"
              fill="white" stroke="white" stroke-width="0.25" stroke-miterlimit="10"/>
        <path d="M185.598 82.0974H184.561L182.449 84.2163V82.0974H181.645V87.2725H182.449V84.7923L184.871 87.2725H185.976L183.214 84.4604L185.598 82.0974Z"
              fill="white" stroke="white" stroke-width="0.25" stroke-miterlimit="10"/>
        <path d="M188.776 81.9998C188.02 81.9998 187.4 82.2634 186.896 82.7809C186.402 83.2886 186.15 83.9233 186.15 84.6947C186.15 85.4563 186.402 86.091 186.896 86.6085C187.4 87.1162 188.02 87.3798 188.776 87.3798C189.532 87.3798 190.162 87.1162 190.656 86.6085C191.159 86.091 191.402 85.4563 191.402 84.6947C191.402 83.9331 191.15 83.2984 190.656 82.7809C190.162 82.2634 189.532 81.9998 188.776 81.9998ZM190.055 86.0617C189.706 86.423 189.28 86.6085 188.776 86.6085C188.272 86.6085 187.846 86.423 187.497 86.0617C187.148 85.6906 186.984 85.2317 186.984 84.6849C186.984 84.1381 187.148 83.6792 187.497 83.3179C187.846 82.9469 188.263 82.7614 188.776 82.7614C189.29 82.7614 189.706 82.9469 190.055 83.3179C190.404 83.6792 190.578 84.1381 190.578 84.6849C190.578 85.2317 190.404 85.6906 190.055 86.0617Z"
              fill="white" stroke="white" stroke-width="0.25" stroke-miterlimit="10"/>
        <path d="M195.142 84.4311L193.476 82.0974H192.652V87.2725H193.457V83.3375L194.89 85.2903H195.365L196.789 83.3375V87.2725H197.603V82.0974H196.789L195.142 84.4311Z"
              fill="white" stroke="white" stroke-width="0.25" stroke-miterlimit="10"/>
        <path d="M199.027 87.2725H199.832V82.8395H202.399V87.2725H203.203V82.0974H199.027V87.2725Z" fill="white"
              stroke="white" stroke-width="0.25" stroke-miterlimit="10"/>
        <path d="M206.4 82.0676L204.152 87.272H205.015L205.567 85.9831H208.008L208.57 87.272H209.433L207.185 82.0676H206.4ZM205.848 85.2703L206.788 83.0929L207.728 85.2703H205.848Z"
              fill="white" stroke="white" stroke-width="0.25" stroke-miterlimit="10"/>
        <path d="M213.861 84.1381H211.187V82.0974H210.373V87.2725H211.187V84.89H213.861V87.2725H214.675V82.0974H213.861V84.1381Z"
              fill="white" stroke="white" stroke-width="0.25" stroke-miterlimit="10"/>
        <path d="M216.902 85.8957V82.0974H216.098V87.2725H216.786L219.634 83.4546V87.2725H220.438V82.0974H219.731L216.902 85.8957Z"
              fill="white" stroke="white" stroke-width="0.25" stroke-miterlimit="10"/>
        <path d="M221.932 83.5718C221.932 84.2846 222.348 84.8314 223.075 84.9974L221.438 87.2725H222.416L223.966 85.0853H225.168V87.2725H225.972V82.0974H223.627C222.581 82.0974 221.932 82.6833 221.932 83.5718ZM225.168 82.8395V84.3627H223.666C223.085 84.3627 222.736 84.0796 222.736 83.6011C222.736 83.1227 223.085 82.8395 223.666 82.8395H225.168Z"
              fill="white" stroke="white" stroke-width="0.25" stroke-miterlimit="10"/>
    </symbol>

    <!-- Иконка Метро для футера -->
    <symbol id="icon-metro" viewBox="0 0 18 21">
        <g clip-path="url(#clip0)">
            <path d="M9.01735 0C9.14394 0.0157303 9.27052 0.0157303 9.38128 0.0314607C10.299 0.094382 11.1693 0.283146 12.0079 0.629214C14.5553 1.68315 16.2484 3.5236 17.1186 6.13483C17.356 6.8427 17.4667 7.56629 17.4984 8.30562C17.5933 10.8697 16.7231 13.0562 14.9193 14.8809C12.8939 16.9101 10.8528 18.9393 8.81166 20.9528C8.79583 20.9685 8.78001 20.9843 8.76419 21C8.43191 20.6697 8.09963 20.3393 7.76735 20.009C7.76735 19.9933 7.799 19.9775 7.81482 19.9618C9.84014 17.9483 11.8813 15.9191 13.9066 13.9056C14.761 13.0562 15.3939 12.0494 15.7579 10.8854C16.0268 10.0517 16.1218 9.20225 16.0743 8.32135C15.9319 5.4427 14.0806 2.94157 11.4382 1.9191C10.7737 1.65169 10.0775 1.49438 9.34963 1.44719C6.12178 1.17978 3.11545 3.03596 1.92874 6.02472C1.6914 6.6382 1.53317 7.26742 1.45406 7.91236C1.28001 9.61124 1.64393 11.1843 2.56165 12.6315C2.84646 13.0719 3.16292 13.4652 3.52684 13.827C3.76419 14.0787 3.82748 14.3933 3.68507 14.6607C3.46355 15.0854 2.89393 15.1798 2.54583 14.8337C2.22938 14.5348 1.96039 14.2045 1.6914 13.8584C0.916084 12.8202 0.409755 11.6562 0.15659 10.3978C-0.00163747 9.62697 -0.0491058 8.84045 0.0141853 8.05393C0.15659 6.15056 0.852793 4.48315 2.10279 3.03596C3.13127 1.84045 4.38128 1.00674 5.86862 0.48764C6.40659 0.298876 6.96039 0.157303 7.53001 0.094382C7.81482 0.0629214 8.09963 0.047191 8.38444 0.0157303C8.41609 0.0157303 8.44773 0 8.46356 0C8.66925 0 8.8433 0 9.01735 0Z"
                  fill="white"></path>
            <path d="M10.174 11.263C10.174 10.9799 10.174 10.7125 10.174 10.4293C10.3322 10.4293 10.4905 10.4293 10.6803 10.4293C10.5063 9.9574 10.3481 9.48549 10.174 9.01358C9.69933 9.8001 9.22465 10.5552 8.74996 11.3259C8.27528 10.5552 7.81642 9.78437 7.34174 9.01358C7.16769 9.50122 7.00946 9.9574 6.85123 10.4293C7.02528 10.4293 7.18351 10.4293 7.35756 10.4293C7.35756 10.7125 7.35756 10.9799 7.35756 11.263C6.23414 11.263 5.11072 11.263 3.9873 11.263C3.9873 10.9956 3.9873 10.7125 3.9873 10.4293C4.12971 10.4293 4.27211 10.4293 4.43034 10.4293C4.49363 10.4293 4.58857 10.445 4.63604 10.4136C4.68351 10.3821 4.69933 10.2877 4.71515 10.2248C5.42718 8.44729 6.12338 6.66976 6.83541 4.89223C6.85123 4.86077 6.85123 4.84504 6.86705 4.79785C7.49996 5.89898 8.11705 6.98437 8.74996 8.08549C9.38288 6.98437 9.99996 5.89898 10.6329 4.79785C10.6487 4.82931 10.6645 4.86077 10.6645 4.8765C11.3924 6.70122 12.1202 8.52594 12.8481 10.3507C12.8639 10.4136 12.8955 10.4293 12.9588 10.4136C13.1487 10.4136 13.3386 10.4136 13.5284 10.4136C13.5284 10.6967 13.5284 10.9641 13.5284 11.2473C12.405 11.263 11.2974 11.263 10.174 11.263Z"
                  fill="white"></path>
        </g>
        <defs>
            <clipPath id="clip0">
                <rect width="17.5" height="21" fill="white"></rect>
            </clipPath>
        </defs>
    </symbol>

    <!-- Arrow next -->
    <symbol id="icon-next" viewBox="0 0 46 26">
        <path d="M0.192871 12.6583H43.9993M43.9993 12.6583L33.3437 1.56445M43.9993 12.6583L34.9223 25.0322"/>
    </symbol>
    <!-- Arrow prev -->
    <symbol id="icon-prev" viewBox="0 0 46 26">
        <path d="M45.8066 13.3739L2.00019 13.3739M2.00019 13.3739L12.6558 24.4678M2.00019 13.3739L11.0772 1.00003"/>
    </symbol>

    <!--    Иконки характеристик домов-->
    <!-- houses-icon-1 -->
    <symbol id="features-1" viewBox="0 0 48 43.348">
        <g>
            <path d="M41.906,15.515c0.543-0.154,0.996-0.531,1.245-1.037l0.142-0.276c0.462-0.944,0.13-2.085-0.768-2.632l-1.972-1.185V3.918   c0.919-0.334,1.467-1.277,1.302-2.24C41.689,0.714,40.857,0.007,39.88,0h-5.385c-1.114,0.003-2.016,0.905-2.019,2.019   c0,0.851,0.537,1.609,1.34,1.891v2.437l-9.727-5.836c-0.638-0.383-1.435-0.383-2.073,0L3.579,11.571   c-0.897,0.547-1.23,1.688-0.768,2.632l0.142,0.276c0.25,0.506,0.702,0.883,1.245,1.037c0.182,0.053,0.369,0.081,0.559,0.081   c0.274-0.007,0.544-0.068,0.794-0.182v20.934H4.878c-1.115,0-2.019,0.904-2.019,2.019c0,1.115,0.904,2.019,2.019,2.019h36.348   c1.115,0,2.019-0.904,2.019-2.019c0-1.115-0.904-2.019-2.019-2.019h-0.673V15.421C40.979,15.61,41.458,15.643,41.906,15.515   L41.906,15.515z M34.495,1.346h5.385c0.372,0,0.673,0.302,0.673,0.673c0,0.372-0.302,0.673-0.673,0.673h-5.385   c-0.372,0-0.673-0.302-0.673-0.673C33.822,1.648,34.123,1.346,34.495,1.346L34.495,1.346z M39.207,4.039v5.54l-4.045-2.423V4.039   H39.207z M41.226,37.695c0.372,0,0.673,0.302,0.673,0.673s-0.302,0.673-0.673,0.673H4.878c-0.372,0-0.673-0.302-0.673-0.673   s0.302-0.673,0.673-0.673H41.226z M6.897,36.348V14.647l15.805-9.518c0.216-0.128,0.484-0.128,0.7,0l15.805,9.518v21.701H6.897z    M24.095,3.978c-0.641-0.391-1.446-0.391-2.087,0L5.106,14.156c-0.163,0.095-0.357,0.12-0.539,0.067   c-0.179-0.051-0.329-0.176-0.411-0.344l-0.141-0.276c-0.152-0.316-0.042-0.696,0.256-0.882L22.709,1.663   c0.212-0.125,0.475-0.125,0.686,0l18.437,11.059c0.298,0.186,0.408,0.566,0.256,0.882l-0.141,0.276   c-0.082,0.168-0.231,0.293-0.411,0.344c-0.181,0.053-0.376,0.028-0.539-0.067L24.095,3.978z M24.095,3.978"/>
            <rect x="2.522"/>
            <g>
                <path d="M13.853,32.289h-1.777V20.368h1.777v1.777c0.987-1.382,2.419-2.073,4.295-2.073c0.971,0,1.789,0.206,2.456,0.617    c0.666,0.411,1.123,0.987,1.37,1.728c0.46-0.707,1.09-1.275,1.888-1.703c0.798-0.428,1.699-0.642,2.703-0.642    c1.333,0,2.369,0.416,3.11,1.246c0.74,0.831,1.111,2.011,1.111,3.542v7.429h-1.777v-7.034c0-2.336-0.987-3.505-2.962-3.505    c-0.724,0-1.444,0.251-2.16,0.753c-0.716,0.502-1.255,1.107-1.617,1.814c0,0.165,0.004,0.354,0.012,0.568    c0.008,0.214,0.016,0.379,0.025,0.494c0.008,0.115,0.012,0.206,0.012,0.271v6.639h-1.777v-7.034c0-2.336-0.987-3.505-2.962-3.505    c-0.691,0-1.399,0.247-2.123,0.74c-0.691,0.461-1.226,1.037-1.604,1.728V32.289z"/>
            </g>
            <g>
                <path d="M35.31,21.676h-4.023v-0.848l1.664-1.511c0.382-0.35,0.643-0.63,0.783-0.84c0.151-0.215,0.226-0.444,0.226-0.687    c0-0.242-0.089-0.435-0.267-0.578c-0.178-0.143-0.412-0.214-0.703-0.214c-0.528,0-1.037,0.215-1.527,0.646V16.45    c0.458-0.361,1.007-0.541,1.648-0.541c0.538,0,1.007,0.159,1.405,0.477c0.398,0.318,0.598,0.735,0.598,1.252    c0,0.399-0.089,0.751-0.267,1.058c-0.162,0.291-0.471,0.649-0.929,1.074l-0.969,0.889h2.359V21.676z"/>
            </g>
        </g>
    </symbol>
    <!-- houses-icon-2 -->
    <symbol id="features-2" viewBox="0 0 48 43.348">
        <g transform="matrix(0.65279545,0,0,0.61888094,0.919145,2.7106367)" id="g20" clip-path="url(#clip0)">
            <path id="path2-7"
                  d="m 60.6642,42.9228 c -0.3615,0.4788 -0.5751,0.974 -0.953,1.2382 -0.5751,0.4127 -1.4131,-0.033 -1.5938,-0.7429 -0.0329,-0.1321 -0.0657,-0.2807 -0.0329,-0.4128 0.3287,-1.5849 -0.5093,-2.4269 -1.7252,-3.3019 -6.6216,-4.7877 -13.1775,-9.658 -19.7335,-14.5117 -0.46,-0.3467 -0.7393,-0.3302 -1.1994,0.0165 -6.9174,5.1179 -13.8512,10.2193 -20.785,15.3207 -0.4765,0.3467 -0.723,0.6934 -0.6408,1.2878 0.0493,0.3797 0.0164,0.7759 0,1.1556 -0.0329,0.809 -0.4765,1.3868 -1.1338,1.3538 -0.7229,-0.033 -1.1665,-0.4293 -1.1665,-1.2052 0,-0.066 -0.0493,-0.1321 -0.0986,-0.2972 -1.0516,0.7595 -2.07032,1.5024 -3.0726,2.2453 -1.49521,1.1061 -3.00685,2.2123 -4.50205,3.3184 -0.83798,0.6274 -1.72524,0.875 -2.67823,0.3797 -0.952991,-0.4953 -1.2980388,-1.3207 -1.2980388,-2.3938 0.0328617,-3.335 0.0164309,-6.6533 0,-9.9883 0,-1.3042 0.4764948,-2.3278 1.5444988,-3.1037 C 12.0782,25.5383 22.561,17.8119 33.0439,10.102 c 2.0539,-1.50234 3.9763,-1.48583 6.0466,0.033 3.0233,2.2123 6.0465,4.4411 9.0698,6.6699 0.1643,0.132 0.3615,0.2311 0.6244,0.4127 0.0164,-0.2972 0.0493,-0.4953 0.0493,-0.6934 0,-3.0047 -0.0165,-5.9929 0.0164,-8.99765 0,-0.49528 -0.1315,-0.77594 -0.5915,-1.02359 -1.4131,-0.77594 -2.0703,-2.41037 -1.6595,-3.94575 0.3779,-1.45283 1.7252,-2.5259462 3.2697,-2.5424556 3.1547,-0.0330189 6.293,-0.0330189 9.4477,0 1.5938,0.0165094 2.9247,1.0896256 3.3026,2.5919856 0.3944,1.50236 -0.2628,3.08726 -1.6595,3.87971 -0.46,0.24765 -0.5915,0.52831 -0.5915,1.02359 0.0165,5.89386 0,11.77126 0.0329,17.66506 0,0.3302 0.23,0.776 0.4929,0.9906 3.0233,2.2783 6.0466,4.5401 9.1356,6.7359 1.3966,1.007 2.0374,2.2452 2.0045,3.9787 -0.0657,3.1038 -0.0328,6.2241 -0.0164,9.3279 0,1.1061 -0.2958,2.0306 -1.3145,2.5424 -0.9858,0.4953 -1.8895,0.1981 -2.7439,-0.4457 -2.4482,-1.8326 -4.9293,-3.6321 -7.2953,-5.3821 z M 2.40039,40.7931 C 2.76187,40.5454 2.97547,40.3968 3.17264,40.2648 13.5076,32.6374 23.8591,25.0266 34.1941,17.3992 c 1.4459,-1.0731 2.2017,-1.0896 3.6312,-0.0495 6.9338,5.1014 13.8512,10.2028 20.785,15.3207 0.1972,0.1486 0.4108,0.2972 0.5587,0.4788 0.3614,0.4623 0.4107,0.9575 0.0328,1.4363 -0.3614,0.4458 -0.8215,0.6274 -1.3802,0.3632 C 57.608,34.8332 57.3944,34.7011 57.1973,34.5525 51.923,30.6728 46.6487,26.7766 41.3744,22.8968 c -1.7746,-1.3207 -3.5655,-2.625 -5.3072,-3.9127 -0.0986,0.0495 -0.1314,0.0495 -0.1479,0.066 C 24.8614,27.1728 13.8034,35.3119 2.76187,43.4676 2.59756,43.5997 2.41682,43.8473 2.40039,44.0454 2.36753,44.8544 2.38396,45.6633 2.38396,46.6044 2.72901,46.3733 2.95904,46.2247 3.17264,46.0761 13.4748,38.4817 23.7769,30.8874 34.0791,23.3096 c 1.6102,-1.1887 2.3003,-1.1887 3.8941,-0.0165 10.3678,7.6273 20.7357,15.2712 31.0871,22.9151 0.1643,0.1155 0.3451,0.2146 0.6244,0.3797 0,-0.3632 0,-0.5944 0,-0.842 0,-3.0047 -0.0164,-5.9929 0.0164,-8.9976 0.0165,-0.8255 -0.2793,-1.3868 -0.9365,-1.8656 -3.7462,-2.7241 -7.4596,-5.4811 -11.1894,-8.2382 -6.5559,-4.8208 -13.0954,-9.658 -19.6513,-14.4788 -1.5445,-1.1391 -2.251,-1.1391 -3.812,0.033 -0.5093,0.3797 -1.0187,0.7429 -1.528,1.1227 C 22.7746,20.5525 12.949,27.7836 3.13978,35.0313 2.81116,35.2624 2.43325,35.6917 2.41682,36.0384 2.3511,37.5737 2.40039,39.0926 2.40039,40.7931 Z M 51.2329,7.04778 C 51.2,7.14683 51.1507,7.27891 51.1343,7.39447 c 0,3.73113 -0.0164,7.47873 0.0164,11.20993 0,0.2311 0.2136,0.5448 0.4272,0.6934 1.3309,1.0071 2.6782,1.9976 4.0256,2.9882 0.7887,0.5778 1.5609,1.1391 2.4317,1.783 0,-5.7453 0,-11.3585 0,-17.00472 -2.2838,-0.0165 -4.5184,-0.0165 -6.8023,-0.0165 z m 3.4504,-4.70519 c -1.4459,0 -2.8918,0 -4.3541,0 -1.0187,0 -1.4624,0.3632 -1.4952,1.12264 -0.0165,0.75943 0.46,1.2217 1.413,1.2217 2.8918,0.0165 5.8001,0.0165 8.6919,0 0.953,0 1.446,-0.49529 1.4131,-1.23821 -0.0329,-0.72642 -0.4929,-1.10613 -1.4295,-1.10613 -1.3966,-0.01651 -2.8261,0 -4.2392,0 z"/>
            <path id="path4-4"
                  d="m 31.4025,41.9671 c 0,0.4127 0.0493,0.8255 -0.0164,1.2382 -0.0821,0.6934 -0.5093,1.1226 -1.2159,1.0896 -0.6408,-0.033 -1.068,-0.4457 -1.0844,-1.1226 -0.0329,-0.7925 -0.0493,-1.6014 0,-2.3939 0.0329,-0.7099 0.4601,-1.1226 1.1666,-1.1226 0.6737,0 1.0516,0.4457 1.1501,1.0731 0.0493,0.4127 0,0.8254 0,1.2382 z"/>
            <path id="path6-6"
                  d="m 46.4834,41.9672 c 0,-0.4128 -0.0329,-0.8255 0,-1.2382 0.0657,-0.6274 0.4272,-1.0236 1.068,-1.0566 0.6243,-0.0496 1.1337,0.2806 1.183,0.8915 0.0821,0.941 0.115,1.9316 -0.0493,2.8561 -0.0658,0.3467 -0.6901,0.7925 -1.1009,0.8585 -0.5751,0.0825 -1.0187,-0.3797 -1.1008,-0.9906 -0.0329,-0.4457 0,-0.8915 0,-1.3207 z"/>
            <path id="path8-1"
                  d="m 23.2529,41.9342 c 0,-0.3797 -0.0329,-0.7759 0,-1.1556 0.0821,-0.6769 0.4765,-1.1392 1.183,-1.1227 0.6572,0 1.0844,0.3963 1.1173,1.0732 0.0329,0.8254 0.0329,1.6509 0,2.4599 -0.0329,0.6769 -0.4765,1.0896 -1.1173,1.1061 -0.6901,0.0165 -1.1009,-0.4458 -1.183,-1.1226 -0.0329,-0.3963 0,-0.8255 0,-1.2383 z"/>
            <path id="path10-6"
                  d="m 52.3042,41.9996 c 0,-0.4127 -0.0165,-0.8254 0,-1.2217 0.0328,-0.6934 0.4272,-1.0731 1.0844,-1.1061 0.6573,-0.0495 1.1338,0.3302 1.1995,0.9741 0.0821,0.8915 0.0657,1.7995 0,2.7075 -0.0493,0.6108 -0.5422,0.9741 -1.1338,0.9575 C 52.83,44.2944 52.3699,43.9312 52.337,43.2378 52.2877,42.8251 52.3042,42.4124 52.3042,41.9996 Z"/>
            <path id="path12-6"
                  d="m 34.8979,41.967 c 0,-0.4128 -0.0164,-0.8255 0,-1.2383 0.0329,-0.6438 0.4272,-1.007 1.0516,-1.0566 0.6572,-0.0495 1.1502,0.2972 1.2159,0.9576 0.0821,0.908 0.0657,1.816 0,2.724 -0.0493,0.6109 -0.5422,0.9906 -1.1502,0.9576 -0.6243,-0.033 -1.068,-0.4127 -1.1008,-1.1061 -0.0329,-0.4128 -0.0165,-0.8255 -0.0165,-1.2382 z"/>
            <path id="path14-4"
                  d="m 19.7734,41.9665 c 0,0.3797 0,0.7759 0,1.1557 -0.0165,0.7264 -0.4601,1.1061 -1.1173,1.1886 -0.5915,0.0661 -1.1337,-0.4787 -1.1666,-1.1391 -0.0329,-0.7925 -0.0329,-1.6014 0,-2.3939 0.0329,-0.6934 0.5258,-1.1391 1.1666,-1.1391 0.6408,0.0165 1.0844,0.4622 1.1337,1.1721 0,0.3963 -0.0164,0.776 -0.0164,1.1557 z"/>
            <path id="path16-8"
                  d="m 42.9697,41.9992 c 0,0.3797 0,0.776 0,1.1557 -0.0164,0.6934 -0.4272,1.0896 -1.068,1.1391 -0.6572,0.0496 -1.1502,-0.3467 -1.1995,-0.9905 -0.0821,-0.875 -0.0821,-1.7665 0,-2.6415 0.0493,-0.6439 0.5094,-1.0566 1.1831,-1.0071 0.6901,0.0495 1.0844,0.4457 1.0844,1.1887 0,0.3962 0,0.7759 0,1.1556 z"/>
            <path id="path18-0"
                  d="m 66.3807,41.0263 c -0.4436,-0.1981 -0.7394,-0.2807 -0.9694,-0.4458 -1.0845,-0.7759 -2.1689,-1.5684 -3.2369,-2.3773 -0.7065,-0.5448 -0.838,-1.1887 -0.4108,-1.7665 0.4272,-0.5779 1.068,-0.6274 1.8074,-0.0991 1.1009,0.7925 2.2346,1.5684 3.2698,2.4599 0.2957,0.2642 0.5093,0.875 0.4436,1.2547 -0.0822,0.3632 -0.5915,0.6604 -0.9037,0.9741 z"/>
        </g>
    </symbol>
    <!-- houses-icon-3 -->
    <symbol id="features-3" viewBox="0 0 48 43.348">
        <g>
            <path style="fill:#020203;"
                  d="M7.008,18.461l-2.483-2.483L15.996,4.507H11.63V0.996h10.36v10.36h-3.511V6.99L7.008,18.461z    M6.279,15.978l0.729,0.728L19.719,3.995v6.12h1.03V2.237h-7.879v1.03h6.12L6.279,15.978z"/>
            <path d="M44.156,40.229H5.65c-0.343,0-0.62-0.278-0.62-0.62V28.978c0-0.343,0.278-0.62,0.62-0.62h9.046v-7.365   c0-0.343,0.278-0.62,0.62-0.62h8.843v-8.206c0-0.343,0.278-0.62,0.62-0.62h8.276V2.327c0-0.343,0.278-0.62,0.62-0.62h10.48   c0.343,0,0.62,0.278,0.62,0.62v37.281C44.776,39.951,44.499,40.229,44.156,40.229z M6.27,38.989h37.265V2.948h-9.24v9.218   c0,0.343-0.278,0.62-0.62,0.62h-8.276v8.206c0,0.343-0.278,0.62-0.62,0.62h-8.843v7.365c0,0.343-0.278,0.62-0.62,0.62H6.27V38.989z   "/>
            <path d="M11.578,38.287c-0.343,0-0.62-0.278-0.62-0.62v-2.589c0-0.343,0.278-0.62,0.62-0.62c0.343,0,0.62,0.278,0.62,0.62v2.589   C12.198,38.01,11.921,38.287,11.578,38.287z"/>
            <path d="M9.552,38.287c-0.343,0-0.62-0.278-0.62-0.62v-2.589c0-0.343,0.278-0.62,0.62-0.62c0.343,0,0.62,0.278,0.62,0.62v2.589   C10.173,38.01,9.895,38.287,9.552,38.287z"/>
            <path d="M7.527,38.287c-0.343,0-0.62-0.278-0.62-0.62v-2.589c0-0.343,0.278-0.62,0.62-0.62s0.62,0.278,0.62,0.62v2.589   C8.147,38.01,7.87,38.287,7.527,38.287z"/>
            <path d="M17.655,38.287c-0.343,0-0.62-0.278-0.62-0.62v-2.589c0-0.343,0.278-0.62,0.62-0.62c0.343,0,0.62,0.278,0.62,0.62v2.589   C18.275,38.01,17.997,38.287,17.655,38.287z"/>
            <path d="M15.629,38.287c-0.343,0-0.62-0.278-0.62-0.62v-2.589c0-0.343,0.278-0.62,0.62-0.62s0.62,0.278,0.62,0.62v2.589   C16.249,38.01,15.972,38.287,15.629,38.287z"/>
            <path d="M13.604,38.287c-0.343,0-0.62-0.278-0.62-0.62v-2.589c0-0.343,0.278-0.62,0.62-0.62s0.62,0.278,0.62,0.62v2.589   C14.224,38.01,13.946,38.287,13.604,38.287z"/>
            <path d="M23.731,38.287c-0.343,0-0.62-0.278-0.62-0.62v-2.589c0-0.343,0.278-0.62,0.62-0.62s0.62,0.278,0.62,0.62v2.589   C24.351,38.01,24.074,38.287,23.731,38.287z"/>
            <path d="M21.706,38.287c-0.343,0-0.62-0.278-0.62-0.62v-2.589c0-0.343,0.278-0.62,0.62-0.62c0.343,0,0.62,0.278,0.62,0.62v2.589   C22.326,38.01,22.048,38.287,21.706,38.287z"/>
            <path d="M19.68,38.287c-0.343,0-0.62-0.278-0.62-0.62v-2.589c0-0.343,0.278-0.62,0.62-0.62s0.62,0.278,0.62,0.62v2.589   C20.3,38.01,20.023,38.287,19.68,38.287z"/>
            <path d="M29.808,38.287c-0.343,0-0.62-0.278-0.62-0.62v-2.589c0-0.343,0.278-0.62,0.62-0.62c0.343,0,0.62,0.278,0.62,0.62v2.589   C30.428,38.01,30.15,38.287,29.808,38.287z"/>
            <path d="M27.782,38.287c-0.343,0-0.62-0.278-0.62-0.62v-2.589c0-0.343,0.278-0.62,0.62-0.62s0.62,0.278,0.62,0.62v2.589   C28.402,38.01,28.125,38.287,27.782,38.287z"/>
            <path d="M25.756,38.287c-0.343,0-0.62-0.278-0.62-0.62v-2.589c0-0.343,0.278-0.62,0.62-0.62c0.343,0,0.62,0.278,0.62,0.62v2.589   C26.377,38.01,26.099,38.287,25.756,38.287z"/>
            <path d="M35.884,38.287c-0.343,0-0.62-0.278-0.62-0.62v-2.589c0-0.343,0.278-0.62,0.62-0.62c0.343,0,0.62,0.278,0.62,0.62v2.589   C36.504,38.01,36.227,38.287,35.884,38.287z"/>
            <path d="M33.859,38.287c-0.343,0-0.62-0.278-0.62-0.62v-2.589c0-0.343,0.278-0.62,0.62-0.62c0.343,0,0.62,0.278,0.62,0.62v2.589   C34.479,38.01,34.201,38.287,33.859,38.287z"/>
            <path d="M31.833,38.287c-0.343,0-0.62-0.278-0.62-0.62v-2.589c0-0.343,0.278-0.62,0.62-0.62s0.62,0.278,0.62,0.62v2.589   C32.453,38.01,32.176,38.287,31.833,38.287z"/>
            <path d="M41.961,38.287c-0.343,0-0.62-0.278-0.62-0.62v-2.589c0-0.343,0.278-0.62,0.62-0.62c0.343,0,0.62,0.278,0.62,0.62v2.589   C42.581,38.01,42.303,38.287,41.961,38.287z"/>
            <path d="M39.935,38.287c-0.343,0-0.62-0.278-0.62-0.62v-2.589c0-0.343,0.278-0.62,0.62-0.62s0.62,0.278,0.62,0.62v2.589   C40.555,38.01,40.278,38.287,39.935,38.287z"/>
            <path d="M37.91,38.287c-0.343,0-0.62-0.278-0.62-0.62v-2.589c0-0.343,0.278-0.62,0.62-0.62c0.343,0,0.62,0.278,0.62,0.62v2.589   C38.53,38.01,38.252,38.287,37.91,38.287z"/>
        </g>
    </symbol>
    <!-- houses-icon-4 -->
    <symbol id="features-4" viewBox="0 0 48 43.348">
        <g>
            <path d="M47.226,29.414h-0.774V23.22c-0.002-1.709-1.388-3.095-3.097-3.097V6.962c-0.002-1.709-1.388-3.095-3.097-3.097H7.742   C6.033,3.868,4.647,5.253,4.645,6.962v13.161c-1.709,0.002-3.095,1.388-3.097,3.097v6.194H0.774C0.347,29.414,0,29.761,0,30.188   v3.097c0,0.427,0.347,0.774,0.774,0.774h0.774v3.097c0,0.427,0.347,0.774,0.774,0.774h2.323c0.369,0,0.686-0.261,0.759-0.622   l0.651-3.249h35.891l0.651,3.249c0.072,0.362,0.39,0.622,0.759,0.622h2.323c0.427,0,0.774-0.347,0.774-0.774v-3.097h0.774   c0.427,0,0.774-0.347,0.774-0.774v-3.097C48,29.761,47.653,29.414,47.226,29.414L47.226,29.414z M6.194,6.962   c0.001-0.855,0.694-1.547,1.548-1.548h32.516c0.855,0.001,1.547,0.694,1.548,1.548v13.161h-1.548v-3.097   c-0.002-1.709-1.388-3.095-3.097-3.097h-9.29c-1.709,0.002-3.095,1.388-3.097,3.097v3.097h-1.548v-3.097   c-0.002-1.709-1.388-3.095-3.097-3.097h-9.29c-1.709,0.002-3.095,1.388-3.097,3.097v3.097H6.194V6.962z M38.71,17.027v3.097H26.323   v-3.097c0.001-0.855,0.694-1.547,1.548-1.548h9.29C38.016,15.48,38.709,16.172,38.71,17.027L38.71,17.027z M21.677,17.027v3.097   H9.29v-3.097c0.001-0.855,0.694-1.547,1.548-1.548h9.29C20.984,15.48,21.676,16.172,21.677,17.027L21.677,17.027z M3.097,23.22   c0.001-0.855,0.694-1.547,1.548-1.548h38.71c0.855,0.001,1.547,0.694,1.548,1.548v6.194H3.097V23.22z M4.01,36.382H3.097v-2.323   h1.378L4.01,36.382z M44.903,36.382H43.99l-0.465-2.323h1.378V36.382z M46.452,32.511H1.548v-1.548h44.903V32.511z M46.452,32.511"/>
        </g>
    </symbol>
    <!-- houses-icon-5 -->
    <symbol id="features-5" viewBox="0 0 48 43.348">
        <g>
            <path d="M46.546,21.027H9.391v-1.486c0-0.41-0.333-0.743-0.743-0.743H7.905v-2.229h1.486v0.743c0,0.41,0.333,0.743,0.743,0.743   c0.41,0,0.743-0.333,0.743-0.743V14.34c0-0.41-0.333-0.743-0.743-0.743c-0.41,0-0.743,0.333-0.743,0.743v0.743H7.905V6.166   c0.001-1.641,1.331-2.971,2.972-2.972h2.972c1.641,0.001,2.971,1.331,2.972,2.972v0.063c-2.144,0.365-3.713,2.22-3.715,4.395   c0,0.41,0.333,0.743,0.743,0.743h7.431c0.41,0,0.743-0.333,0.743-0.743c-0.003-2.175-1.572-4.03-3.715-4.395V6.166   c-0.002-2.461-1.997-4.456-4.459-4.459h-2.972C8.416,1.71,6.421,3.704,6.419,6.166v12.633H5.676c-0.41,0-0.743,0.333-0.743,0.743   v1.486H1.96c-0.41,0-0.743,0.333-0.743,0.743V24c0,0.41,0.333,0.743,0.743,0.743h2.229v8.917c0.003,2.175,1.572,4.03,3.715,4.395   v1.55c0,0.41,0.333,0.743,0.743,0.743c0.41,0,0.743-0.333,0.743-0.743v-1.486h29.724v1.486c0,0.41,0.333,0.743,0.743,0.743   s0.743-0.333,0.743-0.743v-1.55c2.144-0.365,3.713-2.22,3.715-4.395v-8.917h2.229c0.41,0,0.743-0.333,0.743-0.743v-2.229   C47.289,21.36,46.956,21.027,46.546,21.027L46.546,21.027z M17.565,7.652c1.355,0.001,2.538,0.918,2.878,2.229h-5.757   C15.027,8.57,16.21,7.653,17.565,7.652L17.565,7.652z M6.419,20.284h1.486v0.743H6.419V20.284z M42.83,33.66   c-0.001,1.641-1.331,2.971-2.972,2.972H8.648c-1.641-0.001-2.971-1.331-2.972-2.972v-8.917H42.83V33.66z M45.802,23.257H2.703   v-0.743h43.099V23.257z M45.802,23.257"/>
            <path d="M7.905,27.715h5.945c0.41,0,0.743-0.333,0.743-0.743c0-0.41-0.333-0.743-0.743-0.743H7.905   c-0.41,0-0.743,0.333-0.743,0.743C7.162,27.382,7.495,27.715,7.905,27.715L7.905,27.715z M7.905,27.715"/>
            <path d="M16.079,27.715h0.743c0.41,0,0.743-0.333,0.743-0.743c0-0.41-0.333-0.743-0.743-0.743h-0.743   c-0.41,0-0.743,0.333-0.743,0.743C15.336,27.382,15.669,27.715,16.079,27.715L16.079,27.715z M16.079,27.715"/>
        </g>
    </symbol>

    <!-- <svg class="icon close">
            <use href="./assets/svg/sprite.svg#close"></use>
        </svg> -->


</svg>